# xmcd
#
# Track frame offsets:
# 150
# 17173
# 34969
# 51367
# 66871
# 84925
# 101629
# 118645
# 134421
# 153985
# 172407
#
# Disc length: 2521 seconds
#
# Revision: 0
# Processed by: cddbd v1.5.1PL0 Copyright (c) Steve Scherf et al.
# Submitted via: Audion 3.0.2 (http://www.panic.com/audion/)
#
DISCID=9809d70b
DTITLE=Backstreet Boys - Never Gone
DYEAR=1900
DGENRE=
TTITLE0=Climbing up the walls
TTITLE1=Poster Girl
TTITLE2=Beautiful Woman
TTITLE3=Forces of Nature
TTITLE4=Incomplete
TTITLE5=The Unloved
TTITLE6=Never Gone
TTITLE7=Love is
TTITLE8=Over Her
TTITLE9=Color my World
TTITLE10=Memories
EXTD=
EXTT0=
EXTT1=
EXTT2=
EXTT3=
EXTT4=
EXTT5=
EXTT6=
EXTT7=
EXTT8=
EXTT9=
EXTT10=
PLAYORDER=
